[hls @ 0x55a474607200] Skip ('#EXT-X-TWITCH-PREFETCH:https://7dfcb88758ec.j.cloudfront.hls.ttvnw.net/v1/segment/CuwC63li2jIxv-QYsktm1hAE50G9k3tEQhKCGtI3Tt0THbqFLPj_u6j1mGWn3ehNY8oUvuwFc8BrqyevmqW0YnIUg_I0mdtutmXzsrp0N3meaaw2PdBF_d9w4_Pq_cfZbs4FPGmNNgYbYqRhjeoVh9p4FTQDS9Yfa9cSQlHzs5kSNkxYCrP8_TaxKQ04-z9OD9ZaUAYqquTt18fKAJjuOe__YxxfQcBNPU9_2nFvhEAOEGEwWueH1V8YCxVVDWifY92M4G4YIuiaBYYL4sP6OQUQgjUF7RCuRZzBKtDXHcIf3xUB9N6oKooeS0wWNF_nf3XyAo7In9xifnHQkB_VirhXL7XMkTAwELcrhovlDsn0fC0jOAUzSMPsRQx7p1gwsn7RnIuC7gs7jJnC7bXEJC0XOcR8C1V3DnHHIoYSLpApzNZFDbISemzBF5Jb5TdW8LrjgjkceY-oF-PFk23sEnMIebcin_Ef45uZ6pP1LRoMboCm3XyqTCiTnWYuIAEqCWV1LXdlc3QtMjDwDQ.ts?dna=Cm1TQZ1hMrWBVtgabToSXnbaH2iMe0ilk-Ue3m1iU9Recht6p4Pg68c-I0Rgoztzgrvw2uI--rHKszFvqyNactWkYStRCjjHVKWcwR4Rf4pT5jl6Bng63Wn6v80E4s1KPeKV0fDaejGxAkxbAmRzGgyLZpB2V-ddKisIqVggASoJZXUtd2VzdC0yMPAN')
[https @ 0x55a4748d2680] Opening 'https://7dfcb88758ec.j.cloudfront.hls.ttvnw.net/v1/segment/CuwC3nVpM7r_Rs10PUBim6d5Eh_VTGyB9I-nI2kB-snF06Ys00UNVyDojJfN8QxKvDDdoYB39gRJ1vxpO6mbONmWZUMl7GSLGMmVy7GjoKAGKZmAqMv436hSK5QWvrCdW06eO-fVWNWFPG0g3faIDMTREgEsviJKZBKdX01IZu7w5yZj5rJy-Vm8w5tTEV9Bfk5e3Ro9OPaObaSLBzQSV6ZIVGJDITxofPGbjO__yAx0oiwjcyEszStCQxWIE4jVyklAsp7Zu8_jzsbUrFdtT9MMTCaugeK2NRFCxp8jF6PLAjCny0w2p_EMDI2Mp8jK04q7j1bri9ZANrbqiHlrJ-ZXaXuKbxiHB2IU9sPw5w4TPB4ppmmZ1R_i7x_hg6976gpQlQSH19mo1ewzh4O47d0WaF_AHACKt7HjWRRV72ZESVf4BgakT6clvDWxuP8FsG3Hib84JGSj8QD33nZHkgE-dmi63Tb3IHG3vZI9pRoMqcijWugBtP9lj6yMIAEqCWV1LXdlc3QtMjDwDQ.ts?dna=Cm1TQZ1hMrWBVtgabToSXnbaH2iMe0ilk-Ue3m1iU9Recht6p4Pg68c-I0Rgoztzgrvw2uI--rHKszFvqyNactWkYStRCjjHVKWcwR4Rf4pT5jl6Bng63Wn6v80E4s1KPeKV0fDaejGxAkxbAmRzGgyLZpB2V-ddKisIqVggASoJZXUtd2VzdC0yMPAN' for reading
frame=  958 fps= 91 q=-1.0 size=    6912KiB time=00:00:15.93 bitrate=3553.9kbits/s speed=1.52x    
frame=  958 fps= 87 q=-1.0 size=    6912KiB time=00:00:15.93 bitrate=3553.9kbits/s speed=1.45x    
frame=  958 fps= 83 q=-1.0 size=    6912KiB time=00:00:15.93 bitrate=3553.9kbits/s speed=1.38x    
frame=  958 fps= 80 q=-1.0 size=    6912KiB time=00:00:15.93 bitrate=3553.9kbits/s speed=1.33x    
[https @ 0x7fd02c005200] Opening 'https://euw12.playlist.ttvnw.net/v1/playlist/CqkGFo6vNd__t32SNOyHb8xNcMC-FtqY2LteA5UhkFl1vVylG1YinW6-BoAne_HlyT0v7RaJqjEOXGDTZikodnPBKafaW6FfPpxNLhOMLpynY7h7j-6AKBNz9GRVpnvLDhmHZjrFaARske1a17ItDj0B5MRG5fOpQPuhincWsWDRxJpf89ZoQ2l8orgork0epqmDPaP9dj5asLeQtCqOWchkLZE4DJCzUKc19IUy3D_eUFkvR8gSSao0Oc3biPF7ayf3w3pUIlWjKhsuGTTFW0qr5CspAL8IEGWMZJTEznIll9onhjU1vpiI2ngL9Q3GhOXPrVKycBvsXFTQ8mNeF8mBfbzdbFe1peOyw5BBEiVjJHM3y_yBzqVLUmO5icSKYj9adE26tqcHSEPem9ABucXVksVuJtW5ZTm4i1iWsRmldo-yDfs0C8JT9FGO8ICUo1O4Fx72e28rOZIYXYpKdOZwi8YzNXK5TmfsLyykvot-oeB8d3vZVGTzoyg8girlqZZE9pitj4742PDa9y01IzYyosPM3ibKiGD8WWvQEXQ1W18PGuT17ZOvSJ6CtuobjZeH5Ah4yDadO_fUaxbbctRzb70NY5OsXrF65x2nlykVw6SqT0qYjUDY6_eCNyhd--FWyhR4ZyQwNlSQCZj-WmVKNBvgvkVE1jXwOM6EiolRV_gynJZJqfObcyJlT_tVR689bt_VfAkh-ZuxoUTtPNa8S4tRmdh6YR1fMjUQydKv-unde1ksFanhT7qtBH3NCowQu4VA5azE2nstPkP8_FdAv9H-qNfOxArXRBc1w22jLIdMrDUj4dHT6afegsQJzj31m9kXn5r-e6B2kXtIQpsUk2U8HCbULXVpvJ9vOf90ON9_cYTH90wJo55w-bxGMpSeG72hiPK88AngXfNSi37ddSdGfsSMThtyXqNRSA6jI20vnktwClTTxpL6Yf_vAqCbRD7tXEwZHf4ZGixzrn1rNewjAVS74w0HxUILDY0B5M77S4LVpeD1wnNpS_-4MSum5x4eeR7cW4hu97vrgOvWmlrbTCYYgZ7DEttZzigqeeba20zQ5h6aWDsaDEDM14LjWZrGTld-wiABKglldS13ZXN0LTIw8A0.m3u8' for reading
[hls @ 0x55a474607200] Skip ('#EXT-X-VERSION:3')
[hls @ 0x55a474607200] Skip ('#EXT-X-TWITCH-LIVE-SEQUENCE:13517')
[hls @ 0x55a474607200] Skip ('#EXT-X-TWITCH-ELAPSED-SECS:27034.000')
[hls @ 0x55a474607200] Skip ('#EXT-X-TWITCH-TOTAL-SECS:27066.000')
[hls @ 0x55a474607200] Skip ('#EXT-X-DATERANGE:ID="playlist-creation-1764946692",CLASS="timestamp",START-DATE="2025-12-05T14:58:12.583Z",END-ON-NEXT=YES,X-SERVER-TIME="1764946692.58"')
[hls @ 0x55a474607200] Skip ('#EXT-X-DATERANGE:ID="playlist-session-1764946692",CLASS="twitch-session",START-DATE="2025-12-05T14:58:12.583Z",END-ON-NEXT=YES,X-TV-TWITCH-SESSIONID="690418884101551333"')
[hls @ 0x55a474607200] Skip ('#EXT-X-DATERANGE:ID="source-1764946663",CLASS="twitch-stream-source",START-DATE="2025-12-05T14:57:43.649Z",END-ON-NEXT=YES,X-TV-TWITCH-STREAM-SOURCE="live"')
[hls @ 0x55a474607200] Skip ('#EXT-X-DATERANGE:ID="trigger-1764946663",CLASS="twitch-trigger",START-DATE="2025-12-05T14:57:43.649Z",END-ON-NEXT=YES,X-TV-TWITCH-TRIGGER-URL="https://euw12.playlist.ttvnw.net/trigger/CqcGZOrGh-PagiK902PhdxcBZdHErX7NTLht0Jsp6dSn0N5mys6AjH5iY1Dc1InhyQbwEu9NBUR5IJDHLrylUVB-AOoW-lHQS-pGmIewoaUa2UUDEySLANspicekzWpYe00YR3QfJyIti-ucdTp_o_LjvGNvML34lJR90gw-tdpfPBsLBDDecpufeb0FYzBfFN4vut_LNmbYJxbL-ePwKwqeO8yBfI-rBHfdd4QzET4TRPL0nu7g0SmwPMLct99uj5tACICHNsIEZSH15F-xbvBRH5i8JCPyrWfUk2gc-4_GCIi4N1ExZfwhCOha6tD7ZBQdw5bUjAlYQhJkE2RSpc1Ev6oAn7dezzQSUxoYvxJTeqteFhq2_uQkPoi4u4roHtV-fRcUj52Mo08vX4bDxkUNbDndywE2M5ymHCtNKf1Xe8fcaFJUA9g0Oi0u3eCJrXxfckoB5KhUfiaQLQs9blYvkAq2uU6gQ5KeGBmXOp7fy-5-Tz9YR2MPJ-UHkWKJBH8u1L5e2AQAJtpnnNfmgixxXqURijlT8w3jc7gJLKYQFRRKgDgKe9UbJZ0c5hrrBMlizBUlRsrCCEZrPUUVO9Aw1kU2Ih0_Iio2rcEtUFtsDRmuGPGqYK4cp1npfI-AJA136Tiem_00F92JblojvnfL-43JlCWKMqDcgqq8LzRX8DezNGzHptOmyxDPB3WZSlIYEj9NmYAY-KInYUekAioxfXD0h3aldWjso_HR2nVHOxbJtJBYlKzNZ_UHPBjAieB3CHDtI1k3tASSMBBsRFbKSrnBgoQuW2TNd0lNjKjsmwxp0IDr1u577tSc47otbvhpLC7NfPNGQVBTrxZbTHzrVXgFUbhGxibp0dKkW4u91zGwMrcU5i_SZzmF8nCGU263NGhZATNhPNpmiBUS0Jp6-YME1gy6zOCb8ahI67BDWtcDGRnDo-z5c2n6FOm7vmtEyo8DdRmqlp6bmBmQ-3xHUNKAKrMn12tdp61ZqpIR8O-HVIeF9OEDwnCUpBUQ0WjukGHlKbwjK_HNgkzaFGvhoYYT5HarJD_kpPdfwUGYnD7CHC_V_-VhGgwh_BfFOUs-y2Rwpe0gASoJZXUtd2VzdC0yMPAN"')
[hls @ 0x55a474607200] Skip ('#EXT-X-PROGRAM-DATE-TIME:2025-12-05T14:58:05.649Z')
[hls @ 0x55a474607200] Skip ('#EXT-X-PROGRAM-DATE-TIME:2025-12-05T14:58:07.649Z')
[hls @ 0x55a474607200] Skip ('#EXT-X-PROGRAM-DATE-TIME:2025-12-05T14:58:09.649Z')
[hls @ 0x55a474607200] Skip ('#EXT-X-PROGRAM-DATE-TIME:2025-12-05T14:58:11.649Z')
[hls @ 0x55a474607200] Skip ('#EXT-X-PROGRAM-DATE-TIME:2025-12-05T14:58:13.649Z')
[hls @ 0x55a474607200] Skip ('#EXT-X-PROGRAM-DATE-TIME:2025-12-05T14:58:15.649Z')
[hls @ 0x55a474607200] Skip ('#EXT-X-PROGRAM-DATE-TIME:2025-12-05T14:58:17.649Z')
[hls @ 0x55a474607200] Skip ('#EXT-X-PROGRAM-DATE-TIME:2025-12-05T14:58:19.649Z')
[hls @ 0x55a474607200] Skip ('#EXT-X-PROGRAM-DATE-TIME:2025-12-05T14:58:21.649Z')
[hls @ 0x55a474607200] Skip ('#EXT-X-PROGRAM-DATE-TIME:2025-12-05T14:58:23.649Z')
[hls @ 0x55a474607200] Skip ('#EXT-X-PROGRAM-DATE-TIME:2025-12-05T14:58:25.649Z')
[hls @ 0x55a474607200] Skip ('#EXT-X-PROGRAM-DATE-TIME:2025-12-05T14:58:27.649Z')
[hls @ 0x55a474607200] Skip ('#EXT-X-PROGRAM-DATE-TIME:2025-12-05T14:58:29.649Z')
[hls @ 0x55a474607200] Skip ('#EXT-X-PROGRAM-DATE-TIME:2025-12-05T14:58:31.649Z')
[hls @ 0x55a474607200] Skip ('#EXT-X-TWITCH-PREFETCH:https://7dfcb88758ec.j.cloudfront.hls.ttvnw.net/v1/segment/CuwC63li2jIxv-QYsktm1hAE50G9k3tEQhKCGtI3Tt0THbqFLPj_u6j1mGWn3ehNY8oUvuwFc8BrqyevmqW0YnIUg_I0mdtutmXzsrp0N3meaaw2PdBF_d9w4_Pq_cfZbs4FPGmNNgYbYqRhjeoVh9p4FTQDS9Yfa9cSQlHzs5kSNkxYCrP8_TaxKQ04-z9OD9ZaUAYqquTt18fKAJjuOe__YxxfQcBNPU9_2nFvhEAOEGEwWueH1V8YCxVVDWifY92M4G4YIuiaBYYL4sP6OQUQgjUF7RCuRZzBKtDXHcIf3xUB9N6oKooeS0wWNF_nf3XyAo7In9xifnHQkB_VirhXL7XMkTAwELcrhovlDsn0fC0jOAUzSMPsRQx7p1gwsn7RnIuC7gs7jJnC7bXEJC0XOcR8C1V3DnHHIoYSLpApzNZFDbISemzBF5Jb5TdW8LrjgjkceY-oF-PFk23sEnMIebcin_Ef45uZ6pP1LRoMboCm3XyqTCiTnWYuIAEqCWV1LXdlc3QtMjDwDQ.ts?dna=Cm1TQZ1hMrWBVtgabToSXnbaH2iMe0ilk-Ue3m1iU9Recht6p4Pg68c-I0Rgoztzgrvw2uI--rHKszFvqyNactWkYStRCjjHVKWcwR4Rf4pT5jl6Bng63Wn6v80E4s1KPeKV0fDaejGxAkxbAmRzGgyLZpB2V-ddKisIqVggASoJZXUtd2VzdC0yMPAN')
[hls @ 0x55a474607200] Skip ('#EXT-X-TWITCH-PREFETCH:https://7dfcb88758ec.j.cloudfront.hls.ttvnw.net/v1/segment/CuwCpD1tGgeZ5c4waL77NU43PWuyLxsjAv-2d9S9lURiDDVjUp3YBJWj1UJJJOagCik0J-2BsqURAxA561sLflx5sijsHV6Inl2SbSyzyOS9jt_F3-XYXO6emaHXXPqoE4v7RSMRCFq3xQcG8jTJttkbD5GTzpvoWvhp57R2g2-Ka8ZjJB1bbOPfKuTrrii345FDniU9gXJ-L1MoO7cfHJODjS8o8yhjWh77yw196Yzc94VEPNp4O_q5NVLQkO9nGVmVSmkkOxRBYmAGuXS4NvPmjnK0OTMTJOHrZ9FCQKZVRlv2Hmou5sj1J2hbwysZG01byu5ep-PzePQ_3sDEk-UR2jVRo_qytvotkzhjFaj4N3qY81j_JDk95yrVcT0j00-OI9tEDC9CYjBrc2xH6sS7nC36SS80UQKYKsye8o0Mtw9B6RvTNGapDswvusLzgtXwb7IlCuN78u4bdinGjXwFZ3_rIsl6-Shu1Ng9yxoMkGHeqUbBrh1L8_atIAEqCWV1LXdlc3QtMjDwDQ.ts?dna=Cm1TQZ1hMrWBVtgabToSXnbaH2iMe0ilk-Ue3m1iU9Recht6p4Pg68c-I0Rgoztzgrvw2uI--rHKszFvqyNactWkYStRCjjHVKWcwR4Rf4pT5jl6Bng63Wn6v80E4s1KPeKV0fDaejGxAkxbAmRzGgyLZpB2V-ddKisIqVggASoJZXUtd2VzdC0yMPAN')
[https @ 0x55a4748d2680] Opening 'https://7dfcb88758ec.j.cloudfront.hls.ttvnw.net/v1/segment/CuwC8zwx7cardKvEDD_pcOcVSDBcp4LKnYPr2TUS93PmIriYxaNzH3en7DG86447vQfZRQGm_ewytTXsbbfggbUE9jfK2hVOKev78tv_DgkHUQxDiTpZeqGAnLvGF5l4DIKpXwGqyE8tt37TULH8fy9QiOPM5nJyQl0AEblosYmUOnrehu98VwribwsDnMudW-IS_ERNLmiywjueS2zk71dRGOs9L3afoJDIts9ezY9sMTF4DyueCM5dDDRq3wwZoUp9hDIT2_eTJc3JrUZNdfu59T5HQa9MXhgBkRqvKs-uIaNjZ05_RZrw80m_PdxX3Tn-AS1tBKU3V7_dvLDIg5IK1v876Pbe-47wEG2OMggwDXNBV2O_LZh9Am8tPjjbHg49q_HGudt7bhE3vGDqqrHmeHMa9FVcRTkksv10WfOa9IQ8wfsVgrpnjPmIXPn6y-tOfMUeOVhFJgJLCt49210tQopEhoEdaDz7jeyfxRoM_rrHhS9TxYd-VEHiIAEqCWV1LXdlc3QtMjDwDQ.ts?dna=Cm1TQZ1hMrWBVtgabToSXnbaH2iMe0ilk-Ue3m1iU9Recht6p4Pg68c-I0Rgoztzgrvw2uI--rHKszFvqyNactWkYStRCjjHVKWcwR4Rf4pT5jl6Bng63Wn6v80E4s1KPeKV0fDaejGxAkxbAmRzGgyLZpB2V-ddKisIqVggASoJZXUtd2VzdC0yMPAN' for reading
frame= 1078 fps= 86 q=-1.0 size=    7936KiB time=00:00:17.93 bitrate=3625.3kbits/s speed=1.43x    
frame= 1078 fps= 83 q=-1.0 size=    7936KiB time=00:00:17.93 bitrate=3625.3kbits/s speed=1.38x    
frame= 1078 fps= 80 q=-1.0 size=    7936KiB time=00:00:17.93 bitrate=3625.3kbits/s speed=1.33x    
frame= 1078 fps= 77 q=-1.0 size=    7936KiB time=00:00:17.93 bitrate=3625.3kbits/s speed=1.28x    
[https @ 0x7fd02c005200] Opening 'https://euw12.playlist.ttvnw.net/v1/playlist/CqkGFo6vNd__t32SNOyHb8xNcMC-FtqY2LteA5UhkFl1vVylG1YinW6-BoAne_HlyT0v7RaJqjEOXGDTZikodnPBKafaW6FfPpxNLhOMLpynY7h7j-6AKBNz9GRVpnvLDhmHZjrFaARske1a17ItDj0B5MRG5fOpQPuhincWsWDRxJpf89ZoQ2l8orgork0epqmDPaP9dj5asLeQtCqOWchkLZE4DJCzUKc19IUy3D_eUFkvR8gSSao0Oc3biPF7ayf3w3pUIlWjKhsuGTTFW0qr5CspAL8IEGWMZJTEznIll9onhjU1vpiI2ngL9Q3GhOXPrVKycBvsXFTQ8mNeF8mBfbzdbFe1peOyw5BBEiVjJHM3y_yBzqVLUmO5icSKYj9adE26tqcHSEPem9ABucXVksVuJtW5ZTm4i1iWsRmldo-yDfs0C8JT9FGO8ICUo1O4Fx72e28rOZIYXYpKdOZwi8YzNXK5TmfsLyykvot-oeB8d3vZVGTzoyg8girlqZZE9pitj4742PDa9y01IzYyosPM3ibKiGD8WWvQEXQ1W18PGuT17ZOvSJ6CtuobjZeH5Ah4yDadO_fUaxbbctRzb70NY5OsXrF65x2nlykVw6SqT0qYjUDY6_eCNyhd--FWyhR4ZyQwNlSQCZj-WmVKNBvgvkVE1jXwOM6EiolRV_gynJZJqfObcyJlT_tVR689bt_VfAkh-ZuxoUTtPNa8S4tRmdh6YR1fMjUQydKv-unde1ksFanhT7qtBH3NCowQu4VA5azE2nstPkP8_FdAv9H-qNfOxArXRBc1w22jLIdMrDUj4dHT6afegsQJzj31m9kXn5r-e6B2kXtIQpsUk2U8HCbULXVpvJ9vOf90ON9_cYTH90wJo55w-bxGMpSeG72hiPK88AngXfNSi37ddSdGfsSMThtyXqNRSA6jI20vnktwClTTxpL6Yf_vAqCbRD7tXEwZHf4ZGixzrn1rNewjAVS74w0HxUILDY0B5M77S4LVpeD1wnNpS_-4MSum5x4eeR7cW4hu97vrgOvWmlrbTCYYgZ7DEttZzigqeeba20zQ5h6aWDsaDEDM14LjWZrGTld-wiABKglldS13ZXN0LTIw8A0.m3u8' for reading
[hls @ 0x55a474607200] Skip ('#EXT-X-VERSION:3')
[hls @ 0x55a474607200] Skip ('#EXT-X-TWITCH-LIVE-SEQUENCE:13518')
[hls @ 0x55a474607200] Skip ('#EXT-X-TWITCH-ELAPSED-SECS:27036.000')
[hls @ 0x55a474607200] Skip ('#EXT-X-TWITCH-TOTAL-SECS:27068.000')
[hls @ 0x55a474607200] Skip ('#EXT-X-DATERANGE:ID="playlist-creation-1764946692",CLASS="timestamp",START-DATE="2025-12-05T14:58:12.583Z",END-ON-NEXT=YES,X-SERVER-TIME="1764946692.58"')
[hls @ 0x55a474607200] Skip ('#EXT-X-DATERANGE:ID="playlist-session-1764946692",CLASS="twitch-session",START-DATE="2025-12-05T14:58:12.583Z",END-ON-NEXT=YES,X-TV-TWITCH-SESSIONID="690418884101551333"')
[hls @ 0x55a474607200] Skip ('#EXT-X-DATERANGE:ID="source-1764946663",CLASS="twitch-stream-source",START-DATE="2025-12-05T14:57:43.649Z",END-ON-NEXT=YES,X-TV-TWITCH-STREAM-SOURCE="live"')
[hls @ 0x55a474607200] Skip ('#EXT-X-DATERANGE:ID="trigger-1764946663",CLASS="twitch-trigger",START-DATE="2025-12-05T14:57:43.649Z",END-ON-NEXT=YES,X-TV-TWITCH-TRIGGER-URL="https://euw12.playlist.ttvnw.net/trigger/CqcGZOrGh-PagiK902PhdxcBZdHErX7NTLht0Jsp6dSn0N5mys6AjH5iY1Dc1InhyQbwEu9NBUR5IJDHLrylUVB-AOoW-lHQS-pGmIewoaUa2UUDEySLANspicekzWpYe00YR3QfJyIti-ucdTp_o_LjvGNvML34lJR90gw-tdpfPBsLBDDecpufeb0FYzBfFN4vut_LNmbYJxbL-ePwKwqeO8yBfI-rBHfdd4QzET4TRPL0nu7g0SmwPMLct99uj5tACICHNsIEZSH15F-xbvBRH5i8JCPyrWfUk2gc-4_GCIi4N1ExZfwhCOha6tD7ZBQdw5bUjAlYQhJkE2RSpc1Ev6oAn7dezzQSUxoYvxJTeqteFhq2_uQkPoi4u4roHtV-fRcUj52Mo08vX4bDxkUNbDndywE2M5ymHCtNKf1Xe8fcaFJUA9g0Oi0u3eCJrXxfckoB5KhUfiaQLQs9blYvkAq2uU6gQ5KeGBmXOp7fy-5-Tz9YR2MPJ-UHkWKJBH8u1L5e2AQAJtpnnNfmgixxXqURijlT8w3jc7gJLKYQFRRKgDgKe9UbJZ0c5hrrBMlizBUlRsrCCEZrPUUVO9Aw1kU2Ih0_Iio2rcEtUFtsDRmuGPGqYK4cp1npfI-AJA136Tiem_00F92JblojvnfL-43JlCWKMqDcgqq8LzRX8DezNGzHptOmyxDPB3WZSlIYEj9NmYAY-KInYUekAioxfXD0h3aldWjso_HR2nVHOxbJtJBYlKzNZ_UHPBjAieB3CHDtI1k3tASSMBBsRFbKSrnBgoQuW2TNd0lNjKjsmwxp0IDr1u577tSc47otbvhpLC7NfPNGQVBTrxZbTHzrVXgFUbhGxibp0dKkW4u91zGwMrcU5i_SZzmF8nCGU263NGhZATNhPNpmiBUS0Jp6-YME1gy6zOCb8ahI67BDWtcDGRnDo-z5c2n6FOm7vmtEyo8DdRmqlp6bmBmQ-3xHUNKAKrMn12tdp61ZqpIR8O-HVIeF9OEDwnCUpBUQ0WjukGHlKbwjK_HNgkzaFGvhoYYT5HarJD_kpPdfwUGYnD7CHC_V_-VhGgwh_BfFOUs-y2Rwpe0gASoJZXUtd2VzdC0yMPAN"')
[hls @ 0x55a474607200] Skip ('#EXT-X-PROGRAM-DATE-TIME:2025-12-05T14:58:07.649Z')
[hls @ 0x55a474607200] Skip ('#EXT-X-PROGRAM-DATE-TIME:2025-12-05T14:58:09.649Z')
[hls @ 0x55a474607200] Skip ('#EXT-X-PROGRAM-DATE-TIME:2025-12-05T14:58:11.649Z')
[hls @ 0x55a474607200] Skip ('#EXT-X-PROGRAM-DATE-TIME:2025-12-05T14:58:13.649Z')
[hls @ 0x55a474607200] Skip ('#EXT-X-PROGRAM-DATE-TIME:2025-12-05T14:58:15.649Z')
[hls @ 0x55a474607200] Skip ('#EXT-X-PROGRAM-DATE-TIME:2025-12-05T14:58:17.649Z')
[hls @ 0x55a474607200] Skip ('#EXT-X-PROGRAM-DATE-TIME:2025-12-05T14:58:19.649Z')
[hls @ 0x55a474607200] Skip ('#EXT-X-PROGRAM-DATE-TIME:2025-12-05T14:58:21.649Z')
[hls @ 0x55a474607200] Skip ('#EXT-X-PROGRAM-DATE-TIME:2025-12-05T14:58:23.649Z')
[hls @ 0x55a474607200] Skip ('#EXT-X-PROGRAM-DATE-TIME:2025-12-05T14:58:25.649Z')
[hls @ 0x55a474607200] Skip ('#EXT-X-PROGRAM-DATE-TIME:2025-12-05T14:58:27.649Z')
[hls @ 0x55a474607200] Skip ('#EXT-X-PROGRAM-DATE-TIME:2025-12-05T14:58:29.649Z')
[hls @ 0x55a474607200] Skip ('#EXT-X-PROGRAM-DATE-TIME:2025-12-05T14:58:31.649Z')
[hls @ 0x55a474607200] Skip ('#EXT-X-PROGRAM-DATE-TIME:2025-12-05T14:58:33.649Z')
[hls @ 0x55a474607200] Skip ('#EXT-X-TWITCH-PREFETCH:https://7dfcb88758ec.j.cloudfront.hls.ttvnw.net/v1/segment/CuwCpD1tGgeZ5c4waL77NU43PWuyLxsjAv-2d9S9lURiDDVjUp3YBJWj1UJJJOagCik0J-2BsqURAxA561sLflx5sijsHV6Inl2SbSyzyOS9jt_F3-XYXO6emaHXXPqoE4v7RSMRCFq3xQcG8jTJttkbD5GTzpvoWvhp57R2g2-Ka8ZjJB1bbOPfKuTrrii345FDniU9gXJ-L1MoO7cfHJODjS8o8yhjWh77yw196Yzc94VEPNp4O_q5NVLQkO9nGVmVSmkkOxRBYmAGuXS4NvPmjnK0OTMTJOHrZ9FCQKZVRlv2Hmou5sj1J2hbwysZG01byu5ep-PzePQ_3sDEk-UR2jVRo_qytvotkzhjFaj4N3qY81j_JDk95yrVcT0j00-OI9tEDC9CYjBrc2xH6sS7nC36SS80UQKYKsye8o0Mtw9B6RvTNGapDswvusLzgtXwb7IlCuN78u4bdinGjXwFZ3_rIsl6-Shu1Ng9yxoMkGHeqUbBrh1L8_atIAEqCWV1LXdlc3QtMjDwDQ.ts?dna=Cm1TQZ1hMrWBVtgabToSXnbaH2iMe0ilk-Ue3m1iU9Recht6p4Pg68c-I0Rgoztzgrvw2uI--rHKszFvqyNactWkYStRCjjHVKWcwR4Rf4pT5jl6Bng63Wn6v80E4s1KPeKV0fDaejGxAkxbAmRzGgyLZpB2V-ddKisIqVggASoJZXUtd2VzdC0yMPAN')
[hls @ 0x55a474607200] Skip ('#EXT-X-TWITCH-PREFETCH:https://7dfcb88758ec.j.cloudfront.hls.ttvnw.net/v1/segment/CuwClPOlOaKPABR71UVoSmVb7uwxM5BIlUAI5OMt0LWVgP0fkyoRJCJjboO8ktBeKXaKjego01jjU4P__su5Y1WcQEZERo4mzxVx76uwKv5YqipWGXr5C_WfNUCh80vL-aI3FszEPcAduoJ3L6-UUyJsOiuLRoalfItWZz9WUkT93hEImSy-xjXvbKpOcDr3WMhugoP0ZN-BQ34s-3wJI2GAsisPM-4E5LJUjGa6Mj7nHGVovylSNgrBzStRJluN3wBww0viX4dyxHpgPvQLKBwrvTz7CA_H3yBp7EKNWwGZuxRivYFTe35lySrdDHNtP_7qTRlwqx4zeOciS7Hw3BcdF_8op-mNt4IexbOLPxp_-CvWwY8neSnHfZvY6xxGO2ShYjX_mWRaxHzW0qwTx5NLKRe3kuqHER3LCOSvhRcRHV4gwBS2BJ9P8DKYz377K20qKpsleGuNg72NpxOJYSCpxLdbCV7chCu_nHVS2xoMdwXpuIq4jLsIUhipIAEqCWV1LXdlc3QtMjDwDQ.ts?dna=Cm1TQZ1hMrWBVtgabToSXnbaH2iMe0ilk-Ue3m1iU9Recht6p4Pg68c-I0Rgoztzgrvw2uI--rHKszFvqyNactWkYStRCjjHVKWcwR4Rf4pT5jl6Bng63Wn6v80E4s1KPeKV0fDaejGxAkxbAmRzGgyLZpB2V-ddKisIqVggASoJZXUtd2VzdC0yMPAN')
[https @ 0x55a4748d2680] Opening 'https://7dfcb88758ec.j.cloudfront.hls.ttvnw.net/v1/segment/CuwC63li2jIxv-QYsktm1hAE50G9k3tEQhKCGtI3Tt0THbqFLPj_u6j1mGWn3ehNY8oUvuwFc8BrqyevmqW0YnIUg_I0mdtutmXzsrp0N3meaaw2PdBF_d9w4_Pq_cfZbs4FPGmNNgYbYqRhjeoVh9p4FTQDS9Yfa9cSQlHzs5kSNkxYCrP8_TaxKQ04-z9OD9ZaUAYqquTt18fKAJjuOe__YxxfQcBNPU9_2nFvhEAOEGEwWueH1V8YCxVVDWifY92M4G4YIuiaBYYL4sP6OQUQgjUF7RCuRZzBKtDXHcIf3xUB9N6oKooeS0wWNF_nf3XyAo7In9xifnHQkB_VirhXL7XMkTAwELcrhovlDsn0fC0jOAUzSMPsRQx7p1gwsn7RnIuC7gs7jJnC7bXEJC0XOcR8C1V3DnHHIoYSLpApzNZFDbISemzBF5Jb5TdW8LrjgjkceY-oF-PFk23sEnMIebcin_Ef45uZ6pP1LRoMboCm3XyqTCiTnWYuIAEqCWV1LXdlc3QtMjDwDQ.ts?dna=Cm1TQZ1hMrWBVtgabToSXnbaH2iMe0ilk-Ue3m1iU9Recht6p4Pg68c-I0Rgoztzgrvw2uI--rHKszFvqyNactWkYStRCjjHVKWcwR4Rf4pT5jl6Bng63Wn6v80E4s1KPeKV0fDaejGxAkxbAmRzGgyLZpB2V-ddKisIqVggASoJZXUtd2VzdC0yMPAN' for reading
[out#0/mp4 @ 0x55a4747154c0] video:8090KiB audio:390KiB subtitle:0KiB other streams:0KiB global headers:0KiB muxing overhead: 0.446542%
frame= 1137 fps= 78 q=-1.0 Lsize=    8518KiB time=00:00:18.91 bitrate=3688.8kbits/s speed= 1.3x    
Exiting normally, received signal 15.
2025-12-05 14:58:36,533 - __main__ - INFO - Download stopped for browser browser_1764946688
2025-12-05 14:58:36,534 - werkzeug - INFO - 192.168.0.246 - - [05/Dec/2025 14:58:36] "POST /api/downloads/stop/browser_1764946688 HTTP/1.1" 200 -
2025-12-05 14:58:36,550 - werkzeug - INFO - 192.168.0.246 - - [05/Dec/2025 14:58:36] "GET /api/downloads/active HTTP/1.1" 200 -
2025-12-05 14:58:36,797 - werkzeug - INFO - 192.168.0.246 - - [05/Dec/2025 14:58:36] "GET /api/downloads/active HTTP/1.1" 200 -
2025-12-05 14:58:37,795 - werkzeug - INFO - 192.168.0.246 - - [05/Dec/2025 14:58:37] "GET /api/downloads/active HTTP/1.1" 200 -
2025-12-05 14:58:38,790 - werkzeug - INFO - 192.168.0.246 - - [05/Dec/2025 14:58:38] "GET /api/downloads/active HTTP/1.1" 200 -
2025-12-05 14:58:39,837 - werkzeug - INFO - 192.168.0.246 - - [05/Dec/2025 14:58:39] "GET /api/downloads/active HTTP/1.1" 200 -
2025-12-05 14:58:40,825 - werkzeug - INFO - 192.168.0.246 - - [05/Dec/2025 14:58:40] "GET /api/downloads/active HTTP/1.1" 200 -
2025-12-05 14:58:41,836 - werkzeug - INFO - 192.168.0.246 - - [05/Dec/2025 14:58:41] "GET /api/downloads/active HTTP/1.1" 200 -
2025-12-05 14:58:42,824 - werkzeug - INFO - 192.168.0.246 - - [05/Dec/2025 14:58:42] "GET /api/downloads/active HTTP/1.1" 200 -
2025-12-05 14:58:43,828 - werkzeug - INFO - 192.168.0.246 - - [05/Dec/2025 14:58:43] "GET /api/downloads/active HTTP/1.1" 200 -
2025-12-05 14:58:44,825 - werkzeug - INFO - 192.168.0.246 - - [05/Dec/2025 14:58:44] "GET /api/downloads/active HTTP/1.1" 200 -
2025-12-05 14:58:45,832 - werkzeug - INFO - 192.168.0.246 - - [05/Dec/2025 14:58:45] "GET /api/downloads/active HTTP/1.1" 200 -
2025-12-05 14:58:46,827 - werkzeug - INFO - 192.168.0.246 - - [05/Dec/2025 14:58:46] "GET /api/downloads/active HTTP/1.1" 200 -
2025-12-05 14:58:47,833 - werkzeug - INFO - 192.168.0.246 - - [05/Dec/2025 14:58:47] "GET /api/downloads/active HTTP/1.1" 200 -
2025-12-05 14:58:48,832 - werkzeug - INFO - 192.168.0.246 - - [05/Dec/2025 14:58:48] "GET /api/downloads/active HTTP/1.1" 200 -
2025-12-05 14:58:49,830 - werkzeug - INFO - 192.168.0.246 - - [05/Dec/2025 14:58:49] "GET /api/downloads/active HTTP/1.1" 200 -
2025-12-05 14:58:50,825 - werkzeug - INFO - 192.168.0.246 - - [05/Dec/2025 14:58:50] "GET /api/downloads/active HTTP/1.1" 200 -
2025-12-05 14:58:51,824 - werkzeug - INFO - 192.168.0.246 - - [05/Dec/2025 14:58:51] "GET /api/downloads/active HTTP/1.1" 200 -
2025-12-05 14:58:52,825 - werkzeug - INFO - 192.168.0.246 - - [05/Dec/2025 14:58:52] "GET /api/downloads/active HTTP/1.1" 200 -
2025-12-05 14:58:53,830 - werkzeug - INFO - 192.168.0.246 - - [05/Dec/2025 14:58:53] "GET /api/downloads/active HTTP/1.1" 200 -
2025-12-05 14:58:54,836 - werkzeug - INFO - 192.168.0.246 - - [05/Dec/2025 14:58:54] "GET /api/downloads/active HTTP/1.1" 200 -
2025-12-05 14:58:55,827 - werkzeug - INFO - 192.168.0.246 - - [05/Dec/2025 14:58:55] "GET /api/downloads/active HTTP/1.1" 200 -
2025-12-05 14:58:56,839 - werkzeug - INFO - 192.168.0.246 - - [05/Dec/2025 14:58:56] "GET /api/downloads/active HTTP/1.1" 200 -
2025-12-05 14:58:57,829 - werkzeug - INFO - 192.168.0.246 - - [05/Dec/2025 14:58:57] "GET /api/downloads/active HTTP/1.1" 200 -
2025-12-05 14:58:58,825 - werkzeug - INFO - 192.168.0.246 - - [05/Dec/2025 14:58:58] "GET /api/downloads/active HTTP/1.1" 200 -
2025-12-05 14:58:59,828 - werkzeug - INFO - 192.168.0.246 - - [05/Dec/2025 14:58:59] "GET /api/downloads/active HTTP/1.1" 200 -
2025-12-05 14:59:00,832 - werkzeug - INFO - 192.168.0.246 - - [05/Dec/2025 14:59:00] "GET /api/downloads/active HTTP/1.1" 200 -
2025-12-05 14:59:01,833 - werkzeug - INFO - 192.168.0.246 - - [05/Dec/2025 14:59:01] "GET /api/downloads/active HTTP/1.1" 200 -
2025-12-05 14:59:02,796 - werkzeug - INFO - 192.168.0.246 - - [05/Dec/2025 14:59:02] "GET /api/downloads/active HTTP/1.1" 200 -
2025-12-05 14:59:03,791 - werkzeug - INFO - 192.168.0.246 - - [05/Dec/2025 14:59:03] "GET /api/downloads/active HTTP/1.1" 200 -
2025-12-05 14:59:04,828 - werkzeug - INFO - 192.168.0.246 - - [05/Dec/2025 14:59:04] "GET /api/downloads/active HTTP/1.1" 200 -
2025-12-05 14:59:05,832 - werkzeug - INFO - 192.168.0.246 - - [05/Dec/2025 14:59:05] "GET /api/downloads/active HTTP/1.1" 200 -
2025-12-05 14:59:06,828 - werkzeug - INFO - 192.168.0.246 - - [05/Dec/2025 14:59:06] "GET /api/downloads/active HTTP/1.1" 200 -
